<svg id="kity_svg_6" xmlns="http://www.w3.org/2000/svg" xmlns:xlink="http://www.w3.org/1999/xlink" version="1.1" width="1239" height="2392" style="background: rgb(251, 251, 251); visibility: visible;" viewBox="0 0 1239 2392"><defs id="kity_defs_7"><linearGradient id="kity_linearGradient_17" x1="0" y1="0" x2="0" y2="1"><stop id="kity_stop_18" offset="0" stop-color="rgb(255, 255, 255)"></stop><stop id="kity_stop_19" offset="1" stop-color="rgb(204, 204, 204)"></stop></linearGradient><marker id="kity_marker_2" orient="auto" refX="6" refY="0" viewBox="-7 -7 14 14" markerWidth="7" markerHeight="7" markerUnits="userSpaceOnUse"><path id="kity_path_3" fill="rgb(115, 161, 191)" stroke="none" d="M6,0A6,6,0,1,1,-6,0A6,6,0,1,1,6,0"></path></marker></defs><g id="kity_g_8"><g id="minder1" text-rendering="optimize-speed"><g id="minder_connect_group1"><path id="kity_path_31" fill="none" stroke="rgb(115, 161, 191)" stroke-width="1" d="M81,1131.5A178.5,0,0,0,1,259.5,1131.5"></path><path id="kity_path_33" fill="none" stroke="rgb(115, 161, 191)" stroke-width="1" d="M400.5,1131.5C415.5,1131.5,415.5,63.5,430.5,63.5L704.5,63.5"></path><path id="kity_path_35" fill="none" stroke="rgb(115, 161, 191)" stroke-width="1" d="M400.5,1131.5C415.5,1131.5,415.5,167.5,430.5,167.5L549.5,167.5"></path><path id="kity_path_37" fill="none" stroke="rgb(115, 161, 191)" stroke-width="1" d="M549.5,167.5C564.5,167.5,564.5,115.5,579.5,115.5L839.5,115.5"></path><path id="kity_path_39" fill="none" stroke="rgb(115, 161, 191)" stroke-width="1" d="M549.5,167.5C564.5,167.5,564.5,167.5,579.5,167.5L829.5,167.5"></path><path id="kity_path_41" fill="none" stroke="rgb(115, 161, 191)" stroke-width="1" d="M549.5,167.5C564.5,167.5,564.5,219.5,579.5,219.5L811.5,219.5"></path><path id="kity_path_43" fill="none" stroke="rgb(115, 161, 191)" stroke-width="1" d="M400.5,1131.5C415.5,1131.5,415.5,531.5,430.5,531.5L540.5,531.5"></path><path id="kity_path_45" fill="none" stroke="rgb(115, 161, 191)" stroke-width="1" d="M540.5,531.5C555.5,531.5,555.5,349.5,570.5,349.5L697.5,349.5"></path><path id="kity_path_47" fill="none" stroke="rgb(115, 161, 191)" stroke-width="1" d="M697.5,349.5C712.5,349.5,712.5,271.5,727.5,271.5L964.5,271.5"></path><path id="kity_path_49" fill="none" stroke="rgb(115, 161, 191)" stroke-width="1" d="M697.5,349.5C712.5,349.5,712.5,323.5,727.5,323.5L926.5,323.5"></path><path id="kity_path_51" fill="none" stroke="rgb(115, 161, 191)" stroke-width="1" d="M697.5,349.5C712.5,349.5,712.5,375.5,727.5,375.5L914.5,375.5"></path><path id="kity_path_53" fill="none" stroke="rgb(115, 161, 191)" stroke-width="1" d="M697.5,349.5C712.5,349.5,712.5,427.5,727.5,427.5L798.5,427.5"></path><path id="kity_path_55" fill="none" stroke="rgb(115, 161, 191)" stroke-width="1" d="M540.5,531.5C555.5,531.5,555.5,505.5,570.5,505.5L698.5,505.5"></path><path id="kity_path_57" fill="none" stroke="rgb(115, 161, 191)" stroke-width="1" d="M698.5,505.5C713.5,505.5,713.5,479.5,728.5,479.5L970.5,479.5"></path><path id="kity_path_59" fill="none" stroke="rgb(115, 161, 191)" stroke-width="1" d="M698.5,505.5C713.5,505.5,713.5,531.5,728.5,531.5L907.5,531.5"></path><path id="kity_path_61" fill="none" stroke="rgb(115, 161, 191)" stroke-width="1" d="M540.5,531.5C555.5,531.5,555.5,583.5,570.5,583.5L745.5,583.5"></path><path id="kity_path_63" fill="none" stroke="rgb(115, 161, 191)" stroke-width="1" d="M745.5,583.5C760.5,583.5,760.5,583.5,775.5,583.5L879.5,583.5"></path><path id="kity_path_65" fill="none" stroke="rgb(115, 161, 191)" stroke-width="1" d="M540.5,531.5C555.5,531.5,555.5,713.5,570.5,713.5L698.5,713.5"></path><path id="kity_path_67" fill="none" stroke="rgb(115, 161, 191)" stroke-width="1" d="M698.5,713.5C713.5,713.5,713.5,635.5,728.5,635.5L808.5,635.5"></path><path id="kity_path_69" fill="none" stroke="rgb(115, 161, 191)" stroke-width="1" d="M698.5,713.5C713.5,713.5,713.5,687.5,728.5,687.5L806.5,687.5"></path><path id="kity_path_71" fill="none" stroke="rgb(115, 161, 191)" stroke-width="1" d="M698.5,713.5C713.5,713.5,713.5,739.5,728.5,739.5L782.5,739.5"></path><path id="kity_path_73" fill="none" stroke="rgb(115, 161, 191)" stroke-width="1" d="M698.5,713.5C713.5,713.5,713.5,791.5,728.5,791.5L813.5,791.5"></path><path id="kity_path_75" fill="none" stroke="rgb(115, 161, 191)" stroke-width="1" d="M400.5,1131.5C415.5,1131.5,415.5,921.5,430.5,921.5L564.5,921.5"></path><path id="kity_path_77" fill="none" stroke="rgb(115, 161, 191)" stroke-width="1" d="M564.5,921.5C579.5,921.5,579.5,930.5,594.5,930.5L793.5,930.5"></path><path id="kity_path_79" fill="none" stroke="rgb(115, 161, 191)" stroke-width="1" d="M793.5,930.5C808.5,930.5,808.5,843.5,823.5,843.5L912.5,843.5"></path><path id="kity_path_81" fill="none" stroke="rgb(115, 161, 191)" stroke-width="1" d="M793.5,930.5C808.5,930.5,808.5,895.5,823.5,895.5L905.5,895.5"></path><path id="kity_path_83" fill="none" stroke="rgb(115, 161, 191)" stroke-width="1" d="M793.5,930.5C808.5,930.5,808.5,947.5,823.5,947.5L904.5,947.5"></path><path id="kity_path_85" fill="none" stroke="rgb(115, 161, 191)" stroke-width="1" d="M793.5,930.5C808.5,930.5,808.5,999.5,823.5,999.5L901.5,999.5"></path><path id="kity_path_87" fill="none" stroke="rgb(115, 161, 191)" stroke-width="1" d="M400.5,1131.5C415.5,1131.5,415.5,1311.5,430.5,1311.5L550.5,1311.5"></path><path id="kity_path_89" fill="none" stroke="rgb(115, 161, 191)" stroke-width="1" d="M550.5,1311.5C565.5,1311.5,565.5,1129.5,580.5,1129.5L714.5,1129.5"></path><path id="kity_path_91" fill="none" stroke="rgb(115, 161, 191)" stroke-width="1" d="M714.5,1129.5C729.5,1129.5,729.5,1051.5,744.5,1051.5L957.5,1051.5"></path><path id="kity_path_93" fill="none" stroke="rgb(115, 161, 191)" stroke-width="1" d="M714.5,1129.5C729.5,1129.5,729.5,1103.5,744.5,1103.5L963.5,1103.5"></path><path id="kity_path_95" fill="none" stroke="rgb(115, 161, 191)" stroke-width="1" d="M714.5,1129.5C729.5,1129.5,729.5,1155.5,744.5,1155.5L1048.5,1155.5"></path><path id="kity_path_97" fill="none" stroke="rgb(115, 161, 191)" stroke-width="1" d="M714.5,1129.5C729.5,1129.5,729.5,1207.5,744.5,1207.5L880.5,1207.5"></path><path id="kity_path_99" fill="none" stroke="rgb(115, 161, 191)" stroke-width="1" d="M550.5,1311.5C565.5,1311.5,565.5,1363.5,580.5,1363.5L737.5,1363.5"></path><path id="kity_path_101" fill="none" stroke="rgb(115, 161, 191)" stroke-width="1" d="M737.5,1363.5C752.5,1363.5,752.5,1311.5,767.5,1311.5L931.5,1311.5"></path><path id="kity_path_103" fill="none" stroke="rgb(115, 161, 191)" stroke-width="1" d="M931.5,1311.5C946.5,1311.5,946.5,1259.5,961.5,1259.5L1143.5,1259.5"></path><path id="kity_path_105" fill="none" stroke="rgb(115, 161, 191)" stroke-width="1" d="M931.5,1311.5C946.5,1311.5,946.5,1311.5,961.5,1311.5L1086.5,1311.5"></path><path id="kity_path_107" fill="none" stroke="rgb(115, 161, 191)" stroke-width="1" d="M931.5,1311.5C946.5,1311.5,946.5,1363.5,961.5,1363.5L1151.5,1363.5"></path><path id="kity_path_109" fill="none" stroke="rgb(115, 161, 191)" stroke-width="1" d="M737.5,1363.5C752.5,1363.5,752.5,1415.5,767.5,1415.5L1219.5,1415.5"></path><path id="kity_path_111" fill="none" stroke="rgb(115, 161, 191)" stroke-width="1" d="M550.5,1311.5C565.5,1311.5,565.5,1493.5,580.5,1493.5L753.5,1493.5"></path><path id="kity_path_113" fill="none" stroke="rgb(115, 161, 191)" stroke-width="1" d="M753.5,1493.5C768.5,1493.5,768.5,1467.5,783.5,1467.5L901.5,1467.5"></path><path id="kity_path_115" fill="none" stroke="rgb(115, 161, 191)" stroke-width="1" d="M753.5,1493.5C768.5,1493.5,768.5,1519.5,783.5,1519.5L904.5,1519.5"></path><path id="kity_path_117" fill="none" stroke="rgb(115, 161, 191)" stroke-width="1" d="M400.5,1131.5C415.5,1131.5,415.5,1745.5,430.5,1745.5L563.5,1745.5"></path><path id="kity_path_119" fill="none" stroke="rgb(115, 161, 191)" stroke-width="1" d="M563.5,1745.5C578.5,1745.5,578.5,1571.5,593.5,1571.5L806.5,1571.5"></path><path id="kity_path_121" fill="none" stroke="rgb(115, 161, 191)" stroke-width="1" d="M563.5,1745.5C578.5,1745.5,578.5,1623.5,593.5,1623.5L803.5,1623.5"></path><path id="kity_path_123" fill="none" stroke="rgb(115, 161, 191)" stroke-width="1" d="M563.5,1745.5C578.5,1745.5,578.5,1675.5,593.5,1675.5L953.5,1675.5"></path><path id="kity_path_125" fill="none" stroke="rgb(115, 161, 191)" stroke-width="1" d="M563.5,1745.5C578.5,1745.5,578.5,1763.5,593.5,1763.5L893.5,1763.5"></path><path id="kity_path_127" fill="none" stroke="rgb(115, 161, 191)" stroke-width="1" d="M563.5,1745.5C578.5,1745.5,578.5,1815.5,593.5,1815.5L915.5,1815.5"></path><path id="kity_path_129" fill="none" stroke="rgb(115, 161, 191)" stroke-width="1" d="M563.5,1745.5C578.5,1745.5,578.5,1867.5,593.5,1867.5L899.5,1867.5"></path><path id="kity_path_131" fill="none" stroke="rgb(115, 161, 191)" stroke-width="1" d="M563.5,1745.5C578.5,1745.5,578.5,1919.5,593.5,1919.5L863.5,1919.5"></path><path id="kity_path_133" fill="none" stroke="rgb(115, 161, 191)" stroke-width="1" d="M400.5,1131.5C415.5,1131.5,415.5,2245.5,430.5,2245.5L523.5,2245.5"></path><path id="kity_path_135" fill="none" stroke="rgb(115, 161, 191)" stroke-width="1" d="M523.5,2245.5C538.5,2245.5,538.5,2137.5,553.5,2137.5L778.5,2137.5"></path><path id="kity_path_137" fill="none" stroke="rgb(115, 161, 191)" stroke-width="1" d="M778.5,2137.5C793.5,2137.5,793.5,1972.5,808.5,1972.5L876.5,1972.5"></path><path id="kity_path_139" fill="none" stroke="rgb(115, 161, 191)" stroke-width="1" d="M778.5,2137.5C793.5,2137.5,793.5,2024.5,808.5,2024.5L947.5,2024.5"></path><path id="kity_path_141" fill="none" stroke="rgb(115, 161, 191)" stroke-width="1" d="M778.5,2137.5C793.5,2137.5,793.5,2076.5,808.5,2076.5L912.5,2076.5"></path><path id="kity_path_143" fill="none" stroke="rgb(115, 161, 191)" stroke-width="1" d="M778.5,2137.5C793.5,2137.5,793.5,2128.5,808.5,2128.5L972.5,2128.5"></path><path id="kity_path_145" fill="none" stroke="rgb(115, 161, 191)" stroke-width="1" d="M778.5,2137.5C793.5,2137.5,793.5,2180.5,808.5,2180.5L948.5,2180.5"></path><path id="kity_path_147" fill="none" stroke="rgb(115, 161, 191)" stroke-width="1" d="M778.5,2137.5C793.5,2137.5,793.5,2232.5,808.5,2232.5L959.5,2232.5"></path><path id="kity_path_149" fill="none" stroke="rgb(115, 161, 191)" stroke-width="1" d="M778.5,2137.5C793.5,2137.5,793.5,2284.5,808.5,2284.5L959.5,2284.5"></path><path id="kity_path_151" fill="none" stroke="rgb(115, 161, 191)" stroke-width="1" d="M523.5,2245.5C538.5,2245.5,538.5,2372.5,553.5,2372.5L776.5,2372.5"></path></g><g id="minder_node1"><path id="node_outline1" fill="rgb(115, 161, 191)" stroke="rgb(115, 161, 191)" d="M25.5,1111.5h111a5,5,0,0,1,5,5v30a5,5,0,0,1,-5,5h-111a5,5,0,0,1,-5,-5v-30a5,5,0,0,1,5,-5z" stroke-width="3"></path><g id="node_text1" fill="white"><text id="kity_text_22" text-rendering="inherit" font-size="16" dy=".8em" y="1121.0999999046326" x="44.5">图解HTTP</text></g></g><g id="kity_g_12"><path id="kity_path_13" fill="none" stroke="none" d="M44.5,1131.5h0v0h0z"></path></g><g id="kity_g_14"><path id="kity_path_15" fill="none" stroke="none" d="M44.5,1131.5h0v0h0z"></path><path id="kity_path_16" fill="none" stroke="none"></path></g><g id="minder_node2"><g id="node_expander61" style="cursor: pointer;"><path id="kity_path_523" fill="white" stroke="gray" d="M260.5,1131.5A6,6,0,1,1,248.5,1131.5A6,6,0,1,1,260.5,1131.5"></path><path id="kity_path_524" fill="none" stroke="gray" d="M250,1131.5L259,1131.5"></path></g><path id="node_outline62" fill="rgb(238, 243, 246)" stroke="rgb(115, 161, 191)" d="M264.5,1118.5h133a3,3,0,0,1,3,3v20a3,3,0,0,1,-3,3h-133a3,3,0,0,1,-3,-3v-20a3,3,0,0,1,3,-3z" stroke-width="1"></path><g id="node_text62" fill="black"><text id="kity_text_280" text-rendering="inherit" font-size="14" dy=".8em" y="1122.4000000953674" x="281.5">web及网络基础</text></g></g><g id="minder_node3"><g id="node_expander1" style="cursor: pointer;" display="none"><path id="kity_path_343" fill="white" stroke="gray" d="M440.5,40.5A6,6,0,1,1,428.5,40.5A6,6,0,1,1,440.5,40.5"></path><path id="kity_path_344" fill="none" stroke="gray"></path></g><path id="node_outline2" fill="none" stroke="none" d="M445.5,20.5h254a5,5,0,0,1,5,5v30a5,5,0,0,1,-5,5h-254a5,5,0,0,1,-5,-5v-30a5,5,0,0,1,5,-5z" stroke-width="3"></path><g id="node_text2" fill="black"><text id="kity_text_153" text-rendering="inherit" font-size="12" dy=".8em" y="23.700000047683716" x="450.5">规范：HTTP( HyperText Transfer protocol )</text><text id="kity_text_154" text-rendering="inherit" font-size="12" dy=".8em" y="41.700000047683716" x="450.5">RFC （Request for Comments）</text></g></g><g id="minder_node4"><g id="node_expander5" style="cursor: pointer;"><path id="kity_path_355" fill="white" stroke="gray" d="M440.5,153.5A6,6,0,1,1,428.5,153.5A6,6,0,1,1,440.5,153.5"></path><path id="kity_path_356" fill="none" stroke="gray" d="M430,153.5L439,153.5"></path></g><path id="node_outline6" fill="none" stroke="none" d="M445.5,142.5h99a5,5,0,0,1,5,5v12a5,5,0,0,1,-5,5h-99a5,5,0,0,1,-5,-5v-12a5,5,0,0,1,5,-5z" stroke-width="3"></path><g id="node_text6" fill="black"><text id="kity_text_162" text-rendering="inherit" font-size="12" dy=".8em" y="145.70000004768372" x="450.5">万维网构建技术&#xa0;</text></g></g><g id="minder_node5"><g id="node_expander2" style="cursor: pointer;" display="none"><path id="kity_path_346" fill="white" stroke="gray" d="M589.5,101.5A6,6,0,1,1,577.5,101.5A6,6,0,1,1,589.5,101.5"></path><path id="kity_path_347" fill="none" stroke="gray"></path></g><path id="node_outline3" fill="none" stroke="none" d="M594.5,90.5h240a5,5,0,0,1,5,5v12a5,5,0,0,1,-5,5h-240a5,5,0,0,1,-5,-5v-12a5,5,0,0,1,5,-5z" stroke-width="3"></path><g id="node_text3" fill="black"><text id="kity_text_156" text-rendering="inherit" font-size="12" dy=".8em" y="93.70000004768372" x="599.5">1. HTML( HyperText Markup Language )</text></g></g><g id="minder_node6"><g id="node_expander3" style="cursor: pointer;" display="none"><path id="kity_path_349" fill="white" stroke="gray" d="M589.5,153.5A6,6,0,1,1,577.5,153.5A6,6,0,1,1,589.5,153.5"></path><path id="kity_path_350" fill="none" stroke="gray"></path></g><path id="node_outline4" fill="none" stroke="none" d="M594.5,142.5h230a5,5,0,0,1,5,5v12a5,5,0,0,1,-5,5h-230a5,5,0,0,1,-5,-5v-12a5,5,0,0,1,5,-5z" stroke-width="3"></path><g id="node_text4" fill="black"><text id="kity_text_158" text-rendering="inherit" font-size="12" dy=".8em" y="145.70000004768372" x="599.5">2. HTTP( HyperText Transfer Protocol )</text></g></g><g id="minder_node7"><g id="node_expander4" style="cursor: pointer;" display="none"><path id="kity_path_352" fill="white" stroke="gray" d="M589.5,205.5A6,6,0,1,1,577.5,205.5A6,6,0,1,1,589.5,205.5"></path><path id="kity_path_353" fill="none" stroke="gray"></path></g><path id="node_outline5" fill="none" stroke="none" d="M594.5,194.5h212a5,5,0,0,1,5,5v12a5,5,0,0,1,-5,5h-212a5,5,0,0,1,-5,-5v-12a5,5,0,0,1,5,-5z" stroke-width="3"></path><g id="node_text5" fill="black"><text id="kity_text_160" text-rendering="inherit" font-size="12" dy=".8em" y="197.70000004768372" x="599.5">3. URL( Uniform Resource Locator )</text></g></g><g id="minder_node8"><g id="node_expander21" style="cursor: pointer;"><path id="kity_path_403" fill="white" stroke="gray" d="M440.5,517.5A6,6,0,1,1,428.5,517.5A6,6,0,1,1,440.5,517.5"></path><path id="kity_path_404" fill="none" stroke="gray" d="M430,517.5L439,517.5"></path></g><path id="node_outline22" fill="none" stroke="none" d="M445.5,506.5h90a5,5,0,0,1,5,5v12a5,5,0,0,1,-5,5h-90a5,5,0,0,1,-5,-5v-12a5,5,0,0,1,5,-5z" stroke-width="3"></path><g id="node_text22" fill="black"><text id="kity_text_194" text-rendering="inherit" font-size="12" dy=".8em" y="509.7000000476837" x="450.5">TCP/IP 的分层</text></g></g><g id="minder_node9"><g id="node_expander10" style="cursor: pointer;"><path id="kity_path_370" fill="white" stroke="gray" d="M580.5,335.5A6,6,0,1,1,568.5,335.5A6,6,0,1,1,580.5,335.5"></path><path id="kity_path_371" fill="none" stroke="gray" d="M570,335.5L579,335.5"></path></g><path id="node_outline11" fill="none" stroke="none" d="M585.5,324.5h107a5,5,0,0,1,5,5v12a5,5,0,0,1,-5,5h-107a5,5,0,0,1,-5,-5v-12a5,5,0,0,1,5,-5z" stroke-width="3"></path><g id="node_text11" fill="black"><text id="kity_text_172" text-rendering="inherit" font-size="12" dy=".8em" y="327.7000000476837" x="590.5">应用层：通信活动</text></g></g><g id="minder_node10"><g id="node_expander6" style="cursor: pointer;" display="none"><path id="kity_path_358" fill="white" stroke="gray" d="M737.5,257.5A6,6,0,1,1,725.5,257.5A6,6,0,1,1,737.5,257.5"></path><path id="kity_path_359" fill="none" stroke="gray"></path></g><path id="node_outline7" fill="none" stroke="none" d="M742.5,246.5h217a5,5,0,0,1,5,5v12a5,5,0,0,1,-5,5h-217a5,5,0,0,1,-5,-5v-12a5,5,0,0,1,5,-5z" stroke-width="3"></path><g id="node_text7" fill="black"><text id="kity_text_164" text-rendering="inherit" font-size="12" dy=".8em" y="249.70000004768372" x="747.5">HTTP( HyperText Transfer protocol )</text></g></g><g id="minder_node11"><g id="node_expander7" style="cursor: pointer;" display="none"><path id="kity_path_361" fill="white" stroke="gray" d="M737.5,309.5A6,6,0,1,1,725.5,309.5A6,6,0,1,1,737.5,309.5"></path><path id="kity_path_362" fill="none" stroke="gray"></path></g><path id="node_outline8" fill="none" stroke="none" d="M742.5,298.5h179a5,5,0,0,1,5,5v12a5,5,0,0,1,-5,5h-179a5,5,0,0,1,-5,-5v-12a5,5,0,0,1,5,-5z" stroke-width="3"></path><g id="node_text8" fill="black"><text id="kity_text_166" text-rendering="inherit" font-size="12" dy=".8em" y="301.7000000476837" x="747.5">DNS( Domain Name System )</text></g></g><g id="minder_node12"><g id="node_expander8" style="cursor: pointer;" display="none"><path id="kity_path_364" fill="white" stroke="gray" d="M737.5,361.5A6,6,0,1,1,725.5,361.5A6,6,0,1,1,737.5,361.5"></path><path id="kity_path_365" fill="none" stroke="gray"></path></g><path id="node_outline9" fill="none" stroke="none" d="M742.5,350.5h167a5,5,0,0,1,5,5v12a5,5,0,0,1,-5,5h-167a5,5,0,0,1,-5,-5v-12a5,5,0,0,1,5,-5z" stroke-width="3"></path><g id="node_text9" fill="black"><text id="kity_text_168" text-rendering="inherit" font-size="12" dy=".8em" y="353.7000000476837" x="747.5">FTP( File Transfer Protocol )</text></g></g><g id="minder_node13"><g id="node_expander9" style="cursor: pointer;" display="none"><path id="kity_path_367" fill="white" stroke="gray" d="M737.5,413.5A6,6,0,1,1,725.5,413.5A6,6,0,1,1,737.5,413.5"></path><path id="kity_path_368" fill="none" stroke="gray"></path></g><path id="node_outline10" fill="none" stroke="none" d="M742.5,402.5h51a5,5,0,0,1,5,5v12a5,5,0,0,1,-5,5h-51a5,5,0,0,1,-5,-5v-12a5,5,0,0,1,5,-5z" stroke-width="3"></path><g id="node_text10" fill="black"><text id="kity_text_170" text-rendering="inherit" font-size="12" dy=".8em" y="405.7000000476837" x="747.5">其他. . .</text></g></g><g id="minder_node14"><g id="node_expander13" style="cursor: pointer;"><path id="kity_path_379" fill="white" stroke="gray" d="M580.5,491.5A6,6,0,1,1,568.5,491.5A6,6,0,1,1,580.5,491.5"></path><path id="kity_path_380" fill="none" stroke="gray" d="M570,491.5L579,491.5"></path></g><path id="node_outline14" fill="none" stroke="none" d="M585.5,480.5h108a5,5,0,0,1,5,5v12a5,5,0,0,1,-5,5h-108a5,5,0,0,1,-5,-5v-12a5,5,0,0,1,5,-5z" stroke-width="3"></path><g id="node_text14" fill="black"><text id="kity_text_178" text-rendering="inherit" font-size="12" dy=".8em" y="483.7000000476837" x="590.5">传输层：数据传输</text></g></g><g id="minder_node15"><g id="node_expander11" style="cursor: pointer;" display="none"><path id="kity_path_373" fill="white" stroke="gray" d="M738.5,465.5A6,6,0,1,1,726.5,465.5A6,6,0,1,1,738.5,465.5"></path><path id="kity_path_374" fill="none" stroke="gray"></path></g><path id="node_outline12" fill="none" stroke="none" d="M743.5,454.5h222a5,5,0,0,1,5,5v12a5,5,0,0,1,-5,5h-222a5,5,0,0,1,-5,-5v-12a5,5,0,0,1,5,-5z" stroke-width="3"></path><g id="node_text12" fill="black"><text id="kity_text_174" text-rendering="inherit" font-size="12" dy=".8em" y="457.7000000476837" x="748.5">TCP( Transmission Control Protocol )</text></g></g><g id="minder_node16"><g id="node_expander12" style="cursor: pointer;" display="none"><path id="kity_path_376" fill="white" stroke="gray" d="M738.5,517.5A6,6,0,1,1,726.5,517.5A6,6,0,1,1,738.5,517.5"></path><path id="kity_path_377" fill="none" stroke="gray"></path></g><path id="node_outline13" fill="none" stroke="none" d="M743.5,506.5h159a5,5,0,0,1,5,5v12a5,5,0,0,1,-5,5h-159a5,5,0,0,1,-5,-5v-12a5,5,0,0,1,5,-5z" stroke-width="3"></path><g id="node_text13" fill="black"><text id="kity_text_176" text-rendering="inherit" font-size="12" dy=".8em" y="509.7000000476837" x="748.5">UDP( User Data Protocol )</text></g></g><g id="minder_node17"><g id="node_expander15" style="cursor: pointer;"><path id="kity_path_385" fill="white" stroke="gray" d="M580.5,569.5A6,6,0,1,1,568.5,569.5A6,6,0,1,1,580.5,569.5"></path><path id="kity_path_386" fill="none" stroke="gray" d="M570,569.5L579,569.5"></path></g><path id="node_outline16" fill="none" stroke="none" d="M585.5,558.5h155a5,5,0,0,1,5,5v12a5,5,0,0,1,-5,5h-155a5,5,0,0,1,-5,-5v-12a5,5,0,0,1,5,-5z" stroke-width="3"></path><g id="node_text16" fill="black"><text id="kity_text_182" text-rendering="inherit" font-size="12" dy=".8em" y="561.7000000476837" x="590.5">网络层：处理流动的数据包</text></g></g><g id="minder_node18"><g id="node_expander14" style="cursor: pointer;" display="none"><path id="kity_path_382" fill="white" stroke="gray" d="M785.5,569.5A6,6,0,1,1,773.5,569.5A6,6,0,1,1,785.5,569.5"></path><path id="kity_path_383" fill="none" stroke="gray"></path></g><path id="node_outline15" fill="none" stroke="none" d="M790.5,558.5h84a5,5,0,0,1,5,5v12a5,5,0,0,1,-5,5h-84a5,5,0,0,1,-5,-5v-12a5,5,0,0,1,5,-5z" stroke-width="3"></path><g id="node_text15" fill="black"><text id="kity_text_180" text-rendering="inherit" font-size="12" dy=".8em" y="561.7000000476837" x="795.5">规定传输路线</text></g></g><g id="minder_node19"><g id="node_expander20" style="cursor: pointer;"><path id="kity_path_400" fill="white" stroke="gray" d="M580.5,699.5A6,6,0,1,1,568.5,699.5A6,6,0,1,1,580.5,699.5"></path><path id="kity_path_401" fill="none" stroke="gray" d="M570,699.5L579,699.5"></path></g><path id="node_outline21" fill="none" stroke="none" d="M585.5,688.5h108a5,5,0,0,1,5,5v12a5,5,0,0,1,-5,5h-108a5,5,0,0,1,-5,-5v-12a5,5,0,0,1,5,-5z" stroke-width="3"></path><g id="node_text21" fill="black"><text id="kity_text_192" text-rendering="inherit" font-size="12" dy=".8em" y="691.7000000476837" x="590.5">链路层：硬件部分</text></g></g><g id="minder_node20"><g id="node_expander16" style="cursor: pointer;" display="none"><path id="kity_path_388" fill="white" stroke="gray" d="M738.5,621.5A6,6,0,1,1,726.5,621.5A6,6,0,1,1,738.5,621.5"></path><path id="kity_path_389" fill="none" stroke="gray"></path></g><path id="node_outline17" fill="none" stroke="none" d="M743.5,610.5h60a5,5,0,0,1,5,5v12a5,5,0,0,1,-5,5h-60a5,5,0,0,1,-5,-5v-12a5,5,0,0,1,5,-5z" stroke-width="3"></path><g id="node_text17" fill="black"><text id="kity_text_184" text-rendering="inherit" font-size="12" dy=".8em" y="613.7000000476837" x="748.5">操作系统</text></g></g><g id="minder_node21"><g id="node_expander17" style="cursor: pointer;" display="none"><path id="kity_path_391" fill="white" stroke="gray" d="M738.5,673.5A6,6,0,1,1,726.5,673.5A6,6,0,1,1,738.5,673.5"></path><path id="kity_path_392" fill="none" stroke="gray"></path></g><path id="node_outline18" fill="none" stroke="none" d="M743.5,662.5h58a5,5,0,0,1,5,5v12a5,5,0,0,1,-5,5h-58a5,5,0,0,1,-5,-5v-12a5,5,0,0,1,5,-5z" stroke-width="3"></path><g id="node_text18" fill="black"><text id="kity_text_186" text-rendering="inherit" font-size="12" dy=".8em" y="665.7000000476837" x="748.5">设备驱动</text></g></g><g id="minder_node22"><g id="node_expander18" style="cursor: pointer;" display="none"><path id="kity_path_394" fill="white" stroke="gray" d="M738.5,725.5A6,6,0,1,1,726.5,725.5A6,6,0,1,1,738.5,725.5"></path><path id="kity_path_395" fill="none" stroke="gray"></path></g><path id="node_outline19" fill="none" stroke="none" d="M743.5,714.5h34a5,5,0,0,1,5,5v12a5,5,0,0,1,-5,5h-34a5,5,0,0,1,-5,-5v-12a5,5,0,0,1,5,-5z" stroke-width="3"></path><g id="node_text19" fill="black"><text id="kity_text_188" text-rendering="inherit" font-size="12" dy=".8em" y="717.7000000476837" x="748.5">网卡</text></g></g><g id="minder_node23"><g id="node_expander19" style="cursor: pointer;" display="none"><path id="kity_path_397" fill="white" stroke="gray" d="M738.5,777.5A6,6,0,1,1,726.5,777.5A6,6,0,1,1,738.5,777.5"></path><path id="kity_path_398" fill="none" stroke="gray"></path></g><path id="node_outline20" fill="none" stroke="none" d="M743.5,766.5h65a5,5,0,0,1,5,5v12a5,5,0,0,1,-5,5h-65a5,5,0,0,1,-5,-5v-12a5,5,0,0,1,5,-5z" stroke-width="3"></path><g id="node_text20" fill="black"><text id="kity_text_190" text-rendering="inherit" font-size="12" dy=".8em" y="769.7000000476837" x="748.5">电缆等 . . .</text></g></g><g id="minder_node24"><g id="node_expander27" style="cursor: pointer;"><path id="kity_path_421" fill="white" stroke="gray" d="M440.5,907.5A6,6,0,1,1,428.5,907.5A6,6,0,1,1,440.5,907.5"></path><path id="kity_path_422" fill="none" stroke="gray" d="M430,907.5L439,907.5"></path></g><path id="node_outline28" fill="none" stroke="none" d="M445.5,896.5h114a5,5,0,0,1,5,5v12a5,5,0,0,1,-5,5h-114a5,5,0,0,1,-5,-5v-12a5,5,0,0,1,5,-5z" stroke-width="3"></path><g id="node_text28" fill="black"><text id="kity_text_207" text-rendering="inherit" font-size="12" dy=".8em" y="899.7000000476837" x="450.5">TCP/IP 通信传输流</text></g></g><g id="minder_node25"><g id="node_expander26" style="cursor: pointer;"><path id="kity_path_418" fill="white" stroke="gray" d="M604.5,907.5A6,6,0,1,1,592.5,907.5A6,6,0,1,1,604.5,907.5"></path><path id="kity_path_419" fill="none" stroke="gray" d="M594,907.5L603,907.5"></path></g><path id="node_outline27" fill="none" stroke="none" d="M609.5,887.5h179a5,5,0,0,1,5,5v30a5,5,0,0,1,-5,5h-179a5,5,0,0,1,-5,-5v-30a5,5,0,0,1,5,-5z" stroke-width="3"></path><g id="node_text27" fill="black"><text id="kity_text_204" text-rendering="inherit" font-size="12" dy=".8em" y="890.7000000476837" x="614.5">发出端：每通过一层增加首部；</text><text id="kity_text_205" text-rendering="inherit" font-size="12" dy=".8em" y="908.7000000476837" x="614.5">接收端：每通过一层删除首部；</text></g></g><g id="minder_node26"><g id="node_expander22" style="cursor: pointer;" display="none"><path id="kity_path_406" fill="white" stroke="gray" d="M833.5,829.5A6,6,0,1,1,821.5,829.5A6,6,0,1,1,833.5,829.5"></path><path id="kity_path_407" fill="none" stroke="gray"></path></g><path id="node_outline23" fill="none" stroke="none" d="M838.5,818.5h69a5,5,0,0,1,5,5v12a5,5,0,0,1,-5,5h-69a5,5,0,0,1,-5,-5v-12a5,5,0,0,1,5,-5z" stroke-width="3"></path><g id="node_text23" fill="black"><text id="kity_text_196" text-rendering="inherit" font-size="12" dy=".8em" y="821.7000000476837" x="843.5">HTTP 报文</text></g></g><g id="minder_node27"><g id="node_expander23" style="cursor: pointer;" display="none"><path id="kity_path_409" fill="white" stroke="gray" d="M833.5,881.5A6,6,0,1,1,821.5,881.5A6,6,0,1,1,833.5,881.5"></path><path id="kity_path_410" fill="none" stroke="gray"></path></g><path id="node_outline24" fill="none" stroke="none" d="M838.5,870.5h62a5,5,0,0,1,5,5v12a5,5,0,0,1,-5,5h-62a5,5,0,0,1,-5,-5v-12a5,5,0,0,1,5,-5z" stroke-width="3"></path><g id="node_text24" fill="black"><text id="kity_text_198" text-rendering="inherit" font-size="12" dy=".8em" y="873.7000000476837" x="843.5">TCP 报文</text></g></g><g id="minder_node28"><g id="node_expander24" style="cursor: pointer;" display="none"><path id="kity_path_412" fill="white" stroke="gray" d="M833.5,933.5A6,6,0,1,1,821.5,933.5A6,6,0,1,1,833.5,933.5"></path><path id="kity_path_413" fill="none" stroke="gray"></path></g><path id="node_outline25" fill="none" stroke="none" d="M838.5,922.5h61a5,5,0,0,1,5,5v12a5,5,0,0,1,-5,5h-61a5,5,0,0,1,-5,-5v-12a5,5,0,0,1,5,-5z" stroke-width="3"></path><g id="node_text25" fill="black"><text id="kity_text_200" text-rendering="inherit" font-size="12" dy=".8em" y="925.7000000476837" x="843.5">IP 数据包</text></g></g><g id="minder_node29"><g id="node_expander25" style="cursor: pointer;" display="none"><path id="kity_path_415" fill="white" stroke="gray" d="M833.5,985.5A6,6,0,1,1,821.5,985.5A6,6,0,1,1,833.5,985.5"></path><path id="kity_path_416" fill="none" stroke="gray"></path></g><path id="node_outline26" fill="none" stroke="none" d="M838.5,974.5h58a5,5,0,0,1,5,5v12a5,5,0,0,1,-5,5h-58a5,5,0,0,1,-5,-5v-12a5,5,0,0,1,5,-5z" stroke-width="3"></path><g id="node_text26" fill="black"><text id="kity_text_202" text-rendering="inherit" font-size="12" dy=".8em" y="977.7000000476837" x="843.5">网络架构</text></g></g><g id="minder_node30"><g id="node_expander42" style="cursor: pointer;"><path id="kity_path_466" fill="white" stroke="gray" d="M440.5,1297.5A6,6,0,1,1,428.5,1297.5A6,6,0,1,1,440.5,1297.5"></path><path id="kity_path_467" fill="none" stroke="gray" d="M430,1297.5L439,1297.5"></path></g><path id="node_outline43" fill="none" stroke="none" d="M445.5,1286.5h100a5,5,0,0,1,5,5v12a5,5,0,0,1,-5,5h-100a5,5,0,0,1,-5,-5v-12a5,5,0,0,1,5,-5z" stroke-width="3"></path><g id="node_text43" fill="black"><text id="kity_text_237" text-rendering="inherit" font-size="12" dy=".8em" y="1289.7000000476837" x="450.5">IP、TPC 和 DNS</text></g></g><g id="minder_node31"><g id="node_expander32" style="cursor: pointer;"><path id="kity_path_436" fill="white" stroke="gray" d="M590.5,1115.5A6,6,0,1,1,578.5,1115.5A6,6,0,1,1,590.5,1115.5"></path><path id="kity_path_437" fill="none" stroke="gray" d="M580,1115.5L589,1115.5"></path></g><path id="node_outline33" fill="none" stroke="none" d="M595.5,1104.5h114a5,5,0,0,1,5,5v12a5,5,0,0,1,-5,5h-114a5,5,0,0,1,-5,-5v-12a5,5,0,0,1,5,-5z" stroke-width="3"></path><g id="node_text33" fill="black"><text id="kity_text_217" text-rendering="inherit" font-size="12" dy=".8em" y="1107.7000000476837" x="600.5">负责传输的 IP 协议</text></g></g><g id="minder_node32"><g id="node_expander28" style="cursor: pointer;" display="none"><path id="kity_path_424" fill="white" stroke="gray" d="M754.5,1037.5A6,6,0,1,1,742.5,1037.5A6,6,0,1,1,754.5,1037.5"></path><path id="kity_path_425" fill="none" stroke="gray"></path></g><path id="node_outline29" fill="none" stroke="none" d="M759.5,1026.5h193a5,5,0,0,1,5,5v12a5,5,0,0,1,-5,5h-193a5,5,0,0,1,-5,-5v-12a5,5,0,0,1,5,-5z" stroke-width="3"></path><g id="node_text29" fill="black"><text id="kity_text_209" text-rendering="inherit" font-size="12" dy=".8em" y="1029.7000000476837" x="764.5">IP 地址：指明节点被分配到的地址</text></g></g><g id="minder_node33"><g id="node_expander29" style="cursor: pointer;" display="none"><path id="kity_path_427" fill="white" stroke="gray" d="M754.5,1089.5A6,6,0,1,1,742.5,1089.5A6,6,0,1,1,754.5,1089.5"></path><path id="kity_path_428" fill="none" stroke="gray"></path></g><path id="node_outline30" fill="none" stroke="none" d="M759.5,1078.5h199a5,5,0,0,1,5,5v12a5,5,0,0,1,-5,5h-199a5,5,0,0,1,-5,-5v-12a5,5,0,0,1,5,-5z" stroke-width="3"></path><g id="node_text30" fill="black"><text id="kity_text_211" text-rendering="inherit" font-size="12" dy=".8em" y="1081.7000000476837" x="764.5">MAC 地址：指网卡所属的固定地址</text></g></g><g id="minder_node34"><g id="node_expander30" style="cursor: pointer;" display="none"><path id="kity_path_430" fill="white" stroke="gray" d="M754.5,1141.5A6,6,0,1,1,742.5,1141.5A6,6,0,1,1,754.5,1141.5"></path><path id="kity_path_431" fill="none" stroke="gray"></path></g><path id="node_outline31" fill="none" stroke="none" d="M759.5,1130.5h284a5,5,0,0,1,5,5v12a5,5,0,0,1,-5,5h-284a5,5,0,0,1,-5,-5v-12a5,5,0,0,1,5,-5z" stroke-width="3"></path><g id="node_text31" fill="black"><text id="kity_text_213" text-rendering="inherit" font-size="12" dy=".8em" y="1133.7000000476837" x="764.5">ARP 协议：根据通信方 IP 地址反查对应 MAC 地址</text></g></g><g id="minder_node35"><g id="node_expander31" style="cursor: pointer;" display="none"><path id="kity_path_433" fill="white" stroke="gray" d="M754.5,1193.5A6,6,0,1,1,742.5,1193.5A6,6,0,1,1,754.5,1193.5"></path><path id="kity_path_434" fill="none" stroke="gray"></path></g><path id="node_outline32" fill="none" stroke="none" d="M759.5,1182.5h116a5,5,0,0,1,5,5v12a5,5,0,0,1,-5,5h-116a5,5,0,0,1,-5,-5v-12a5,5,0,0,1,5,-5z" stroke-width="3"></path><g id="node_text32" fill="black"><text id="kity_text_215" text-rendering="inherit" font-size="12" dy=".8em" y="1185.7000000476837" x="764.5">路由选择( routing )</text></g></g><g id="minder_node36"><g id="node_expander38" style="cursor: pointer;"><path id="kity_path_454" fill="white" stroke="gray" d="M590.5,1349.5A6,6,0,1,1,578.5,1349.5A6,6,0,1,1,590.5,1349.5"></path><path id="kity_path_455" fill="none" stroke="gray" d="M580,1349.5L589,1349.5"></path></g><path id="node_outline39" fill="none" stroke="none" d="M595.5,1338.5h137a5,5,0,0,1,5,5v12a5,5,0,0,1,-5,5h-137a5,5,0,0,1,-5,-5v-12a5,5,0,0,1,5,-5z" stroke-width="3"></path><g id="node_text39" fill="black"><text id="kity_text_229" text-rendering="inherit" font-size="12" dy=".8em" y="1341.7000000476837" x="600.5">确保可靠性的 TCP 协议</text></g></g><g id="minder_node37"><g id="node_expander36" style="cursor: pointer;"><path id="kity_path_448" fill="white" stroke="gray" d="M777.5,1297.5A6,6,0,1,1,765.5,1297.5A6,6,0,1,1,777.5,1297.5"></path><path id="kity_path_449" fill="none" stroke="gray" d="M767,1297.5L776,1297.5"></path></g><path id="node_outline37" fill="none" stroke="none" d="M782.5,1286.5h144a5,5,0,0,1,5,5v12a5,5,0,0,1,-5,5h-144a5,5,0,0,1,-5,-5v-12a5,5,0,0,1,5,-5z" stroke-width="3"></path><g id="node_text37" fill="black"><text id="kity_text_225" text-rendering="inherit" font-size="12" dy=".8em" y="1289.7000000476837" x="787.5">确认数据传输：三次握手</text></g></g><g id="minder_node38"><g id="node_expander33" style="cursor: pointer;" display="none"><path id="kity_path_439" fill="white" stroke="gray" d="M971.5,1245.5A6,6,0,1,1,959.5,1245.5A6,6,0,1,1,971.5,1245.5"></path><path id="kity_path_440" fill="none" stroke="gray"></path></g><path id="node_outline34" fill="none" stroke="none" d="M976.5,1234.5h162a5,5,0,0,1,5,5v12a5,5,0,0,1,-5,5h-162a5,5,0,0,1,-5,-5v-12a5,5,0,0,1,5,-5z" stroke-width="3"></path><g id="node_text34" fill="black"><text id="kity_text_219" text-rendering="inherit" font-size="12" dy=".8em" y="1237.7000000476837" x="981.5">1. 发送 SYN ( synchronize )</text></g></g><g id="minder_node39"><g id="node_expander34" style="cursor: pointer;" display="none"><path id="kity_path_442" fill="white" stroke="gray" d="M971.5,1297.5A6,6,0,1,1,959.5,1297.5A6,6,0,1,1,971.5,1297.5"></path><path id="kity_path_443" fill="none" stroke="gray"></path></g><path id="node_outline35" fill="none" stroke="none" d="M976.5,1286.5h105a5,5,0,0,1,5,5v12a5,5,0,0,1,-5,5h-105a5,5,0,0,1,-5,-5v-12a5,5,0,0,1,5,-5z" stroke-width="3"></path><g id="node_text35" fill="black"><text id="kity_text_221" text-rendering="inherit" font-size="12" dy=".8em" y="1289.7000000476837" x="981.5">2. 返回 SYN/ACK</text></g></g><g id="minder_node40"><g id="node_expander35" style="cursor: pointer;" display="none"><path id="kity_path_445" fill="white" stroke="gray" d="M971.5,1349.5A6,6,0,1,1,959.5,1349.5A6,6,0,1,1,971.5,1349.5"></path><path id="kity_path_446" fill="none" stroke="gray"></path></g><path id="node_outline36" fill="none" stroke="none" d="M976.5,1338.5h170a5,5,0,0,1,5,5v12a5,5,0,0,1,-5,5h-170a5,5,0,0,1,-5,-5v-12a5,5,0,0,1,5,-5z" stroke-width="3"></path><g id="node_text36" fill="black"><text id="kity_text_223" text-rendering="inherit" font-size="12" dy=".8em" y="1341.7000000476837" x="981.5">3. 发送 ACK ( acknowledge )</text></g></g><g id="minder_node41"><g id="node_expander37" style="cursor: pointer;" display="none"><path id="kity_path_451" fill="white" stroke="gray" d="M777.5,1401.5A6,6,0,1,1,765.5,1401.5A6,6,0,1,1,777.5,1401.5"></path><path id="kity_path_452" fill="none" stroke="gray"></path></g><path id="node_outline38" fill="none" stroke="none" d="M782.5,1390.5h432a5,5,0,0,1,5,5v12a5,5,0,0,1,-5,5h-432a5,5,0,0,1,-5,-5v-12a5,5,0,0,1,5,-5z" stroke-width="3"></path><g id="node_text38" fill="black"><text id="kity_text_227" text-rendering="inherit" font-size="12" dy=".8em" y="1393.7000000476837" x="787.5">字节流服务：将大块数据分割成以报文段 ( segment ) 为单位的数据包进行管理</text></g></g><g id="minder_node42"><g id="node_expander41" style="cursor: pointer;"><path id="kity_path_463" fill="white" stroke="gray" d="M590.5,1479.5A6,6,0,1,1,578.5,1479.5A6,6,0,1,1,590.5,1479.5"></path><path id="kity_path_464" fill="none" stroke="gray" d="M580,1479.5L589,1479.5"></path></g><path id="node_outline42" fill="none" stroke="none" d="M595.5,1468.5h153a5,5,0,0,1,5,5v12a5,5,0,0,1,-5,5h-153a5,5,0,0,1,-5,-5v-12a5,5,0,0,1,5,-5z" stroke-width="3"></path><g id="node_text42" fill="black"><text id="kity_text_235" text-rendering="inherit" font-size="12" dy=".8em" y="1471.7000000476837" x="600.5">负责域名解析的 DNS 服务</text></g></g><g id="minder_node43"><g id="node_expander39" style="cursor: pointer;" display="none"><path id="kity_path_457" fill="white" stroke="gray" d="M793.5,1453.5A6,6,0,1,1,781.5,1453.5A6,6,0,1,1,793.5,1453.5"></path><path id="kity_path_458" fill="none" stroke="gray"></path></g><path id="node_outline40" fill="none" stroke="none" d="M798.5,1442.5h98a5,5,0,0,1,5,5v12a5,5,0,0,1,-5,5h-98a5,5,0,0,1,-5,-5v-12a5,5,0,0,1,5,-5z" stroke-width="3"></path><g id="node_text40" fill="black"><text id="kity_text_231" text-rendering="inherit" font-size="12" dy=".8em" y="1445.7000000476837" x="803.5">通过域名查找 IP</text></g></g><g id="minder_node44"><g id="node_expander40" style="cursor: pointer;" display="none"><path id="kity_path_460" fill="white" stroke="gray" d="M793.5,1505.5A6,6,0,1,1,781.5,1505.5A6,6,0,1,1,793.5,1505.5"></path><path id="kity_path_461" fill="none" stroke="gray"></path></g><path id="node_outline41" fill="none" stroke="none" d="M798.5,1494.5h101a5,5,0,0,1,5,5v12a5,5,0,0,1,-5,5h-101a5,5,0,0,1,-5,-5v-12a5,5,0,0,1,5,-5z" stroke-width="3"></path><g id="node_text41" fill="black"><text id="kity_text_233" text-rendering="inherit" font-size="12" dy=".8em" y="1497.7000000476837" x="803.5">通过 IP 查找域名</text></g></g><g id="minder_node45"><g id="node_expander50" style="cursor: pointer;"><path id="kity_path_490" fill="white" stroke="gray" d="M440.5,1731.5A6,6,0,1,1,428.5,1731.5A6,6,0,1,1,440.5,1731.5"></path><path id="kity_path_491" fill="none" stroke="gray" d="M430,1731.5L439,1731.5"></path></g><path id="node_outline51" fill="none" stroke="none" d="M445.5,1720.5h113a5,5,0,0,1,5,5v12a5,5,0,0,1,-5,5h-113a5,5,0,0,1,-5,-5v-12a5,5,0,0,1,5,-5z" stroke-width="3"></path><g id="node_text51" fill="black"><text id="kity_text_255" text-rendering="inherit" font-size="12" dy=".8em" y="1723.7000000476837" x="450.5">HTTP协议通信过程</text></g></g><g id="minder_node46"><g id="node_expander43" style="cursor: pointer;" display="none"><path id="kity_path_469" fill="white" stroke="gray" d="M603.5,1557.5A6,6,0,1,1,591.5,1557.5A6,6,0,1,1,603.5,1557.5"></path><path id="kity_path_470" fill="none" stroke="gray"></path></g><path id="node_outline44" fill="none" stroke="none" d="M608.5,1546.5h193a5,5,0,0,1,5,5v12a5,5,0,0,1,-5,5h-193a5,5,0,0,1,-5,-5v-12a5,5,0,0,1,5,-5z" stroke-width="3"></path><g id="node_text44" fill="black"><text id="kity_text_239" text-rendering="inherit" font-size="12" dy=".8em" y="1549.7000000476837" x="613.5">1. 客户端 &lt;== IP/域名 ==&gt; DNS</text></g></g><g id="minder_node47"><g id="node_expander44" style="cursor: pointer;" display="none"><path id="kity_path_472" fill="white" stroke="gray" d="M603.5,1609.5A6,6,0,1,1,591.5,1609.5A6,6,0,1,1,603.5,1609.5"></path><path id="kity_path_473" fill="none" stroke="gray"></path></g><path id="node_outline45" fill="none" stroke="none" d="M608.5,1598.5h190a5,5,0,0,1,5,5v12a5,5,0,0,1,-5,5h-190a5,5,0,0,1,-5,-5v-12a5,5,0,0,1,5,-5z" stroke-width="3"></path><g id="node_text45" fill="black"><text id="kity_text_241" text-rendering="inherit" font-size="12" dy=".8em" y="1601.7000000476837" x="613.5">2. HTTP 协议职责：生成请求报文</text></g></g><g id="minder_node48"><g id="node_expander45" style="cursor: pointer;" display="none"><path id="kity_path_475" fill="white" stroke="gray" d="M603.5,1661.5A6,6,0,1,1,591.5,1661.5A6,6,0,1,1,603.5,1661.5"></path><path id="kity_path_476" fill="none" stroke="gray"></path></g><path id="node_outline46" fill="none" stroke="none" d="M608.5,1650.5h340a5,5,0,0,1,5,5v12a5,5,0,0,1,-5,5h-340a5,5,0,0,1,-5,-5v-12a5,5,0,0,1,5,-5z" stroke-width="3"></path><g id="node_text46" fill="black"><text id="kity_text_243" text-rendering="inherit" font-size="12" dy=".8em" y="1653.7000000476837" x="613.5">3. TCP 协议职责：将 HTTP 请求报文分按序号割成多个报文段</text></g></g><g id="minder_node49"><g id="node_expander46" style="cursor: pointer;" display="none"><path id="kity_path_478" fill="white" stroke="gray" d="M603.5,1731.5A6,6,0,1,1,591.5,1731.5A6,6,0,1,1,603.5,1731.5"></path><path id="kity_path_479" fill="none" stroke="gray"></path></g><path id="node_outline47" fill="none" stroke="none" d="M608.5,1702.5h280a5,5,0,0,1,5,5v48a5,5,0,0,1,-5,5h-280a5,5,0,0,1,-5,-5v-48a5,5,0,0,1,5,-5z" stroke-width="3"></path><g id="node_text47" fill="black"><text id="kity_text_245" text-rendering="inherit" font-size="12" dy=".8em" y="1705.7000000476837" x="613.5">&lt;客户端&gt;</text><text id="kity_text_246" text-rendering="inherit" font-size="12" dy=".8em" y="1723.7000000476837" x="613.5">4. IP 协议职责：搜索对方地址，一边中转一边传送</text><text id="kity_text_247" text-rendering="inherit" font-size="12" dy=".8em" y="1741.7000000476837" x="613.5">&lt;服务端&gt;</text></g></g><g id="minder_node50"><g id="node_expander47" style="cursor: pointer;" display="none"><path id="kity_path_481" fill="white" stroke="gray" d="M603.5,1801.5A6,6,0,1,1,591.5,1801.5A6,6,0,1,1,603.5,1801.5"></path><path id="kity_path_482" fill="none" stroke="gray"></path></g><path id="node_outline48" fill="none" stroke="none" d="M608.5,1790.5h302a5,5,0,0,1,5,5v12a5,5,0,0,1,-5,5h-302a5,5,0,0,1,-5,-5v-12a5,5,0,0,1,5,-5z" stroke-width="3"></path><g id="node_text48" fill="black"><text id="kity_text_249" text-rendering="inherit" font-size="12" dy=".8em" y="1793.7000000476837" x="613.5">5. TCP 协议职责：接收报文段，按照顺序重组请求报文</text></g></g><g id="minder_node51"><g id="node_expander48" style="cursor: pointer;" display="none"><path id="kity_path_484" fill="white" stroke="gray" d="M603.5,1853.5A6,6,0,1,1,591.5,1853.5A6,6,0,1,1,603.5,1853.5"></path><path id="kity_path_485" fill="none" stroke="gray"></path></g><path id="node_outline49" fill="none" stroke="none" d="M608.5,1842.5h286a5,5,0,0,1,5,5v12a5,5,0,0,1,-5,5h-286a5,5,0,0,1,-5,-5v-12a5,5,0,0,1,5,-5z" stroke-width="3"></path><g id="node_text49" fill="black"><text id="kity_text_251" text-rendering="inherit" font-size="12" dy=".8em" y="1845.7000000476837" x="613.5">6. HTTP 协议职责：对web服务器请求内容进行处理</text></g></g><g id="minder_node52"><g id="node_expander49" style="cursor: pointer;" display="none"><path id="kity_path_487" fill="white" stroke="gray" d="M603.5,1905.5A6,6,0,1,1,591.5,1905.5A6,6,0,1,1,603.5,1905.5"></path><path id="kity_path_488" fill="none" stroke="gray"></path></g><path id="node_outline50" fill="none" stroke="none" d="M608.5,1894.5h250a5,5,0,0,1,5,5v12a5,5,0,0,1,-5,5h-250a5,5,0,0,1,-5,-5v-12a5,5,0,0,1,5,-5z" stroke-width="3"></path><g id="node_text50" fill="black"><text id="kity_text_253" text-rendering="inherit" font-size="12" dy=".8em" y="1897.7000000476837" x="613.5">7. 服务器：处理结果按 TCP/IP 通信协议回传</text></g></g><g id="minder_node53"><g id="node_expander60" style="cursor: pointer;"><path id="kity_path_520" fill="white" stroke="gray" d="M440.5,2231.5A6,6,0,1,1,428.5,2231.5A6,6,0,1,1,440.5,2231.5"></path><path id="kity_path_521" fill="none" stroke="gray" d="M430,2231.5L439,2231.5"></path></g><path id="node_outline61" fill="none" stroke="none" d="M445.5,2220.5h73a5,5,0,0,1,5,5v12a5,5,0,0,1,-5,5h-73a5,5,0,0,1,-5,-5v-12a5,5,0,0,1,5,-5z" stroke-width="3"></path><g id="node_text61" fill="black"><text id="kity_text_278" text-rendering="inherit" font-size="12" dy=".8em" y="2223.7000000476837" x="450.5">URI 和 URL</text></g></g><g id="minder_node54"><g id="node_expander58" style="cursor: pointer;"><path id="kity_path_514" fill="white" stroke="gray" d="M563.5,2114.5A6,6,0,1,1,551.5,2114.5A6,6,0,1,1,563.5,2114.5"></path><path id="kity_path_515" fill="none" stroke="gray" d="M553,2114.5L562,2114.5"></path></g><path id="node_outline59" fill="none" stroke="none" d="M568.5,2094.5h205a5,5,0,0,1,5,5v30a5,5,0,0,1,-5,5h-205a5,5,0,0,1,-5,-5v-30a5,5,0,0,1,5,-5z" stroke-width="3"></path><g id="node_text59" fill="black"><text id="kity_text_271" text-rendering="inherit" font-size="12" dy=".8em" y="2097.7000000476837" x="573.5">URI ( Uniform Resource Identifer )</text><text id="kity_text_272" text-rendering="inherit" font-size="12" dy=".8em" y="2115.7000000476837" x="573.5">用字符串标识某一互联网资源</text></g></g><g id="minder_node55"><g id="node_expander51" style="cursor: pointer;" display="none"><path id="kity_path_493" fill="white" stroke="gray" d="M818.5,1958.5A6,6,0,1,1,806.5,1958.5A6,6,0,1,1,818.5,1958.5"></path><path id="kity_path_494" fill="none" stroke="gray"></path></g><path id="node_outline52" fill="none" stroke="none" d="M823.5,1947.5h48a5,5,0,0,1,5,5v12a5,5,0,0,1,-5,5h-48a5,5,0,0,1,-5,-5v-12a5,5,0,0,1,5,-5z" stroke-width="3"></path><g id="node_text52" fill="black"><text id="kity_text_257" text-rendering="inherit" font-size="12" dy=".8em" y="1950.7000000476837" x="828.5">1. 协议</text></g></g><g id="minder_node56"><g id="node_expander52" style="cursor: pointer;" display="none"><path id="kity_path_496" fill="white" stroke="gray" d="M818.5,2010.5A6,6,0,1,1,806.5,2010.5A6,6,0,1,1,818.5,2010.5"></path><path id="kity_path_497" fill="none" stroke="gray"></path></g><path id="node_outline53" fill="none" stroke="none" d="M823.5,1999.5h119a5,5,0,0,1,5,5v12a5,5,0,0,1,-5,5h-119a5,5,0,0,1,-5,-5v-12a5,5,0,0,1,5,-5z" stroke-width="3"></path><g id="node_text53" fill="black"><text id="kity_text_259" text-rendering="inherit" font-size="12" dy=".8em" y="2002.7000000476837" x="828.5">2. 登录信息（可选）</text></g></g><g id="minder_node57"><g id="node_expander53" style="cursor: pointer;" display="none"><path id="kity_path_499" fill="white" stroke="gray" d="M818.5,2062.5A6,6,0,1,1,806.5,2062.5A6,6,0,1,1,818.5,2062.5"></path><path id="kity_path_500" fill="none" stroke="gray"></path></g><path id="node_outline54" fill="none" stroke="none" d="M823.5,2051.5h84a5,5,0,0,1,5,5v12a5,5,0,0,1,-5,5h-84a5,5,0,0,1,-5,-5v-12a5,5,0,0,1,5,-5z" stroke-width="3"></path><g id="node_text54" fill="black"><text id="kity_text_261" text-rendering="inherit" font-size="12" dy=".8em" y="2054.7000000476837" x="828.5">3. 服务器地址</text></g></g><g id="minder_node58"><g id="node_expander54" style="cursor: pointer;" display="none"><path id="kity_path_502" fill="white" stroke="gray" d="M818.5,2114.5A6,6,0,1,1,806.5,2114.5A6,6,0,1,1,818.5,2114.5"></path><path id="kity_path_503" fill="none" stroke="gray"></path></g><path id="node_outline55" fill="none" stroke="none" d="M823.5,2103.5h144a5,5,0,0,1,5,5v12a5,5,0,0,1,-5,5h-144a5,5,0,0,1,-5,-5v-12a5,5,0,0,1,5,-5z" stroke-width="3"></path><g id="node_text55" fill="black"><text id="kity_text_263" text-rendering="inherit" font-size="12" dy=".8em" y="2106.7000000476837" x="828.5">4. 服务器端口号（可选）</text></g></g><g id="minder_node59"><g id="node_expander55" style="cursor: pointer;" display="none"><path id="kity_path_505" fill="white" stroke="gray" d="M818.5,2166.5A6,6,0,1,1,806.5,2166.5A6,6,0,1,1,818.5,2166.5"></path><path id="kity_path_506" fill="none" stroke="gray"></path></g><path id="node_outline56" fill="none" stroke="none" d="M823.5,2155.5h120a5,5,0,0,1,5,5v12a5,5,0,0,1,-5,5h-120a5,5,0,0,1,-5,-5v-12a5,5,0,0,1,5,-5z" stroke-width="3"></path><g id="node_text56" fill="black"><text id="kity_text_265" text-rendering="inherit" font-size="12" dy=".8em" y="2158.7000000476837" x="828.5">5. 带层次的文件路径</text></g></g><g id="minder_node60"><g id="node_expander56" style="cursor: pointer;" display="none"><path id="kity_path_508" fill="white" stroke="gray" d="M818.5,2218.5A6,6,0,1,1,806.5,2218.5A6,6,0,1,1,818.5,2218.5"></path><path id="kity_path_509" fill="none" stroke="gray"></path></g><path id="node_outline57" fill="none" stroke="none" d="M823.5,2207.5h131a5,5,0,0,1,5,5v12a5,5,0,0,1,-5,5h-131a5,5,0,0,1,-5,-5v-12a5,5,0,0,1,5,-5z" stroke-width="3"></path><g id="node_text57" fill="black"><text id="kity_text_267" text-rendering="inherit" font-size="12" dy=".8em" y="2210.7000000476837" x="828.5">6. 查询字符串（可选）</text></g></g><g id="minder_node61"><g id="node_expander57" style="cursor: pointer;" display="none"><path id="kity_path_511" fill="white" stroke="gray" d="M818.5,2270.5A6,6,0,1,1,806.5,2270.5A6,6,0,1,1,818.5,2270.5"></path><path id="kity_path_512" fill="none" stroke="gray"></path></g><path id="node_outline58" fill="none" stroke="none" d="M823.5,2259.5h131a5,5,0,0,1,5,5v12a5,5,0,0,1,-5,5h-131a5,5,0,0,1,-5,-5v-12a5,5,0,0,1,5,-5z" stroke-width="3"></path><g id="node_text58" fill="black"><text id="kity_text_269" text-rendering="inherit" font-size="12" dy=".8em" y="2262.7000000476837" x="828.5">7. 片段标识符（可选）</text></g></g><g id="minder_node62"><g id="node_expander59" style="cursor: pointer;" display="none"><path id="kity_path_517" fill="white" stroke="gray" d="M563.5,2340.5A6,6,0,1,1,551.5,2340.5A6,6,0,1,1,563.5,2340.5"></path><path id="kity_path_518" fill="none" stroke="gray"></path></g><path id="node_outline60" fill="none" stroke="none" d="M568.5,2311.5h203a5,5,0,0,1,5,5v48a5,5,0,0,1,-5,5h-203a5,5,0,0,1,-5,-5v-48a5,5,0,0,1,5,-5z" stroke-width="3"></path><g id="node_text60" fill="black"><text id="kity_text_274" text-rendering="inherit" font-size="12" dy=".8em" y="2314.7000000476837" x="573.5">URL ( Uniform Resource Locator )</text><text id="kity_text_275" text-rendering="inherit" font-size="12" dy=".8em" y="2332.7000000476837" x="573.5">资源的地点（互联网上所处的位置）</text><text id="kity_text_276" text-rendering="inherit" font-size="12" dy=".8em" y="2350.7000000476837" x="573.5">是 URI 的子集</text></g></g></g></g></svg>